<!-- public/sprite.svg -->
<svg xmlns="http://www.w3.org/2000/svg" style="display: none;">
  <!-- Each icon is defined as a <symbol> with a unique ID -->

  <symbol id="link">
    <path
      d="M7.15531 3.82378L9.01394 1.99267C10.1892 0.969403 11.9385 1.07712 12.9772 2.2081C13.9338 3.23137 13.9338 4.82012 12.9772 5.87032L11.0912 7.70143L11.6652 8.26692L13.5512 6.40888C14.9451 5.03555 14.8905 2.77359 13.4692 1.40025C12.0752 0.0807749 9.86125 0.0807748 8.46728 1.40025L6.58132 3.23137C5.18734 4.63163 5.18734 6.86666 6.58132 8.26692L7.15531 7.70143C6.08933 6.62431 6.08933 4.90091 7.15531 3.82378Z"
      fill="currentColor" />
    <path
      d="M6.82723 16.1032L8.71319 14.2721C10.1072 12.8718 10.1072 10.6368 8.71319 9.26343L8.1392 9.82892C9.23251 10.906 9.23251 12.6294 8.1392 13.7066L6.25324 15.5377C5.15993 16.6148 3.41063 16.6148 2.31732 15.5377C1.22401 14.4606 1.22401 12.7372 2.31732 11.66L4.20328 9.82892L3.62929 9.26343L1.77066 11.0945C0.322023 12.4409 0.240025 14.676 1.60666 16.1032C2.9733 17.5304 5.24192 17.6111 6.69056 16.2647C6.74523 16.184 6.79989 16.157 6.82723 16.1032Z"
      fill="currentColor" />
    <path d="M10.2286 6.82977L9.6488 6.25854L5.12628 10.7141L5.70609 11.2853L10.2286 6.82977Z" fill="currentColor" />
  </symbol>

  <symbol id="record">
    <path
      d="M5.35398 0L4.9219 0.026536L4.49853 0.107913L4.0891 0.235286L3.69534 0.415731L3.32598 0.642172L2.98624 0.91107L2.68135 1.22066L2.41652 1.56563L2.19525 1.9389L2.0158 2.33871L1.89036 2.75621L1.81021 3.18609L1.78408 3.62482V9.96339L1.81021 10.4004L1.89036 10.8285L2.0158 11.2477L2.19525 11.6475L2.41652 12.0208L2.68135 12.3658L2.98624 12.6754L3.32598 12.9443L3.69534 13.1707L4.0891 13.3512L4.49853 13.4803L4.9219 13.5581L5.35398 13.5864L5.78258 13.5581L6.20769 13.4803L6.61886 13.3512L7.01087 13.1707L7.38198 12.9443L7.71823 12.6754L8.02313 12.3658L8.29144 12.0208L8.5127 11.6475L8.68867 11.2477L8.8176 10.8285L8.896 10.4004L8.92039 9.96339V3.62482L8.896 3.18609L8.8176 2.75621L8.68867 2.33871L8.5127 1.9389L8.29144 1.56563L8.02313 1.22066L7.71823 0.91107L7.38198 0.642172L7.01087 0.415731L6.61886 0.235286L6.20769 0.107913L5.78258 0.026536L5.35398 0ZM5.17104 0.914608H5.53692L5.89757 0.964142L6.2495 1.06321L6.58402 1.21181L6.89588 1.40464L7.17987 1.63639L7.42902 1.90883L7.63983 2.21134L7.80709 2.54215L7.92905 2.89066L8.00396 3.25332L8.0301 3.62482V9.96339L8.00396 10.3349L7.92905 10.6958L7.80709 11.0461L7.63983 11.3733L7.42902 11.6794L7.17987 11.9501L6.89588 12.1836L6.58402 12.3764L6.2495 12.5232L5.89757 12.6241L5.53692 12.6736H5.17104L4.80865 12.6241L4.45671 12.5232L4.12046 12.3764L3.80859 12.1836L3.52634 11.9501L3.2772 11.6794L3.06639 11.3733L2.89739 11.0461L2.77543 10.6958L2.70399 10.3349L2.67786 9.96339V3.62482L2.70399 3.25332L2.77543 2.89066L2.89739 2.54215L3.06639 2.21134L3.2772 1.90883L3.52634 1.63639L3.80859 1.40464L4.12046 1.21181L4.45671 1.06321L4.80865 0.964142L5.17104 0.914608ZM0 9.96339L0.0243917 10.4676L0.09234 10.9665L0.207329 11.46L0.365876 11.9377L0.567978 12.3994L0.811895 12.8399L1.09588 13.2539L1.41472 13.6413L1.7684 13.9986L2.1517 14.3171L2.56461 14.6001L3.00018 14.8443L3.45491 15.0459L3.92881 15.1998L4.4149 15.3131L4.90622 15.3785V17.2095H1.78408V18.1153H8.92039V17.2095H5.8V15.3785L6.29132 15.3131L6.77741 15.1998L7.24956 15.0459L7.70778 14.8443L8.14334 14.6001L8.55626 14.3171L8.93956 13.9986L9.2915 13.6413L9.61207 13.2539L9.89432 12.8399L10.1382 12.3994L10.3386 11.9377L10.4989 11.46L10.6139 10.9665L10.6836 10.4676L10.7045 9.96339H9.81418L9.78804 10.4357L9.71487 10.9045L9.59639 11.3627L9.42739 11.805L9.21658 12.2278L8.96047 12.6258L8.66777 12.992L8.33674 13.3282L7.97435 13.6271L7.58234 13.8837L7.16768 14.1012L6.73211 14.2693L6.27912 14.3931L5.82091 14.4674L5.35398 14.4904L4.88705 14.4674L4.42535 14.3931L3.97585 14.2693L3.54028 14.1012L3.12214 13.8837L2.73187 13.6271L2.36774 13.3282L2.03671 12.992L1.74401 12.6258L1.49138 12.2278L1.27882 11.805L1.11156 11.3627L0.989606 10.9045L0.916431 10.4357L0.893782 9.96339H0Z"
      fill="currentColor" />
  </symbol>

  <symbol id="download">
    <path fill="currentColor"
      d="M6.393 10a.4.4 0 0 1-.191-.045.5.5 0 0 1-.163-.128.6.6 0 0 1-.108-.191.7.7 0 0 1-.038-.226V.59c0-.157.053-.307.147-.417A.47.47 0 0 1 6.393 0c.133 0 .26.062.354.173s.146.26.146.417v8.82a.65.65 0 0 1-.146.417.47.47 0 0 1-.354.173">
    </path>
    <path fill="currentColor"
      d="M6.604 10.515a1.37 1.37 0 0 1-.97-.401L2.741 7.22a.535.535 0 1 1 .757-.758l2.893 2.894a.3.3 0 0 0 .425 0l2.893-2.894a.536.536 0 0 1 .758.758l-2.894 2.893a1.37 1.37 0 0 1-.97.4">
    </path>
    <path fill="currentColor"
      d="M12.132 14.598H1.289c-.342 0-.67-.15-.91-.416A1.5 1.5 0 0 1 0 13.178V9.433c0-.142.051-.278.142-.379a.47.47 0 0 1 .344-.157c.13 0 .253.057.344.157s.143.237.143.38v3.744c0 .092.033.181.092.247.06.065.14.102.224.102h10.843a.3.3 0 0 0 .224-.102.37.37 0 0 0 .092-.247V9.433c0-.142.052-.278.143-.379a.47.47 0 0 1 .344-.157c.129 0 .252.057.344.157.09.1.142.237.142.38v3.744c0 .377-.136.738-.378 1.004s-.57.416-.911.416">
    </path>
  </symbol>

  <symbol id="word-file">
    <path fill="currentColor"
      d="M11.7 16.12H1.3c-.715 0-1.3-.585-1.3-1.3V1.3C0 .585.585 0 1.3 0h5.291C6.942 0 7.753.293 8 .54l4.5 4.5c.247.247.5 1.018.5 1.369v8.411c0 .715-.585 1.3-1.3 1.3M1.3 1.04c-.429 0-.3-.169-.3.26v12.943c0 .43.571.797 1 .797h8.5c.429 0 1.5.209 1.5-.22V6.54c0-.208-.344-.857-.5-1l-3-3L7 1.04z">
    </path>
    <path fill="currentColor"
      d="M8.411 12.22H7.332l-.598-2.34a6 6 0 0 1-.117-.52c-.052-.26-.09-.442-.09-.52a7 7 0 0 1-.092.533c-.052.247-.09.416-.117.52L5.72 12.22H4.641l-1.13-4.459h.922l.572 2.431c.104.455.17.832.221 1.17.013-.117.04-.299.078-.533.04-.234.091-.429.117-.559l.65-2.496h.897l.65 2.496c.026.117.065.286.104.507.04.221.078.429.104.585.026-.156.052-.351.104-.598s.091-.429.117-.572l.572-2.431h.923z">
    </path>
  </symbol>

  <symbol id="copy">
    <path fill="currentColor"
      d="M6.228 14.892h7.33A1.444 1.444 0 0 0 15 13.449V6.12a1.444 1.444 0 0 0-1.443-1.442H6.23A1.443 1.443 0 0 0 4.787 6.12v7.329a1.444 1.444 0 0 0 1.441 1.443m7.33-9.142a.37.37 0 0 1 .37.37v7.329a.37.37 0 0 1-.37.371h-7.33a.37.37 0 0 1-.37-.371V6.12a.37.37 0 0 1 .37-.37z">
    </path>
    <path fill="currentColor"
      d="M1.657 10.32H5.32a.536.536 0 1 0 0-1.072H1.657a.37.37 0 0 1-.371-.371V1.551a.37.37 0 0 1 .37-.371h7.33a.37.37 0 0 1 .37.37v3.664a.536.536 0 1 0 1.072 0V1.551A1.444 1.444 0 0 0 8.988.108H1.657A1.444 1.444 0 0 0 .214 1.551v7.328a1.444 1.444 0 0 0 1.443 1.44">
    </path>
  </symbol>

  <symbol id="remove">
    <path
      d="M1.49172 2.56934H9.94577C10.2182 2.56934 10.4375 2.78457 10.4375 3.05192V14.5175C10.4375 14.7848 10.2182 15.0001 9.94577 15.0001H1.49172C1.21931 15.0001 1 14.7848 1 14.5175V3.05192C1 2.78457 1.21931 2.56934 1.49172 2.56934V2.56934Z"
      stroke="currentColor" stroke-miterlimit="6.2" stroke-linecap="round" stroke-linejoin="round" />
    <path d="M1.03578 1.42236H10.4302" stroke="currentColor" stroke-linecap="round" stroke-linejoin="round" />
    <path d="M3.04933 4.17505V13.3949" stroke="currentColor" stroke-linecap="round" stroke-linejoin="round" />
    <path d="M5.71863 4.17505V13.3949" stroke="currentColor" stroke-linecap="round" stroke-linejoin="round" />
    <path d="M8.38811 4.17505V13.3949" stroke="currentColor" stroke-linecap="round" stroke-linejoin="round" />
    <path d="M4.35373 1H7.11263" stroke="currentColor" stroke-linecap="round" stroke-linejoin="round" />
  </symbol>

  <symbol id="upload">
    <path d="M11.5309 9.97643L8.78612 7.23169L6.04138 9.97643" stroke="currentColor" stroke-linecap="round"
      stroke-linejoin="round" />
    <path d="M8.78601 7.23169V13.4073" stroke="white" stroke-linecap="round" stroke-linejoin="round" />
    <path
      d="M14.543 11.6163C15.2123 11.2514 15.741 10.6741 16.0457 9.97538C16.3504 9.27667 16.4137 8.49639 16.2257 7.75768C16.0377 7.01897 15.609 6.36392 15.0073 5.89589C14.4057 5.42787 13.6653 5.17354 12.903 5.17304H12.0385C11.8308 4.36968 11.4436 3.62386 10.9062 2.99165C10.3688 2.35944 9.69503 1.85729 8.93559 1.52295C8.17616 1.18861 7.35082 1.03079 6.52161 1.06134C5.6924 1.09189 4.88091 1.31003 4.14814 1.69934C3.41537 2.08866 2.78039 2.63903 2.29094 3.30907C1.8015 3.97912 1.47031 4.7514 1.3223 5.56786C1.17428 6.38432 1.21328 7.22372 1.43636 8.02294C1.65945 8.82216 2.06081 9.56041 2.61028 10.1822"
      stroke="currentColor" stroke-linecap="round" stroke-linejoin="round" />
    <path d="M11.5309 9.97643L8.78612 7.23169L6.04138 9.97643" stroke="currentColor" stroke-linecap="round"
      stroke-linejoin="round" />
  </symbol>



  <symbol id="time-text">
    <path
      d="M8.50001 16.8125C6.27938 16.8125 4.19235 15.948 2.62248 14.3775C0.0562897 11.8119 -0.553491 7.92109 1.10604 4.69703C1.25626 4.4055 1.6137 4.29091 1.90582 4.44053C2.19795 4.59016 2.31254 4.94819 2.16232 5.24031C0.739696 8.00362 1.2622 11.3381 3.46204 13.538C4.80748 14.884 6.59645 15.625 8.50001 15.625C10.403 15.625 12.1925 14.884 13.538 13.538C14.8834 12.1919 15.625 10.403 15.625 8.5C15.625 6.59644 14.884 4.80747 13.538 3.46203C12.1919 2.11659 10.4036 1.375 8.50001 1.375C6.59645 1.375 4.80748 2.11659 3.46204 3.46203C3.22988 3.69419 2.85463 3.69419 2.62248 3.46203C2.39032 3.22987 2.39032 2.85462 2.62248 2.62247C4.19235 1.05259 6.27938 0.1875 8.50001 0.1875C10.7206 0.1875 12.8083 1.05259 14.3775 2.62247C15.948 4.19234 16.8125 6.27938 16.8125 8.5C16.8125 10.72 15.948 12.8077 14.3775 14.3775C12.8083 15.948 10.7206 16.8125 8.50001 16.8125Z"
      fill="currentColor" />
    <path
      d="M11.4682 11.4688C11.3381 11.4688 11.2075 11.4266 11.0977 11.3387L8.12891 8.96372C7.98819 8.85091 7.90625 8.6805 7.90625 8.5V3.75C7.90625 3.42225 8.17225 3.15625 8.5 3.15625C8.82775 3.15625 9.09375 3.42225 9.09375 3.75V8.215L11.8398 10.4113C12.0957 10.6167 12.1373 10.9902 11.9325 11.2461C11.8149 11.3922 11.6427 11.4688 11.4682 11.4688Z"
      fill="currentColor" />
  </symbol>


  <symbol id="simple-text">
    <g stroke="currentColor" stroke-linecap="round" stroke-linejoin="round">
      <path d="M1.478 3.696h14.229M5.359 6.93h10.347M1.478 10.163h14.229M5.359 13.397h10.347"></path>
    </g>
  </symbol>


  <symbol id="volume">
    <path fill-rule="evenodd" clip-rule="evenodd"
      d="M4.19652 8.9946L7.6608 12.3799C7.75893 12.4781 7.89522 12.538 8.04516 12.538C8.3448 12.538 8.59023 12.2955 8.59023 11.9982V0.53973C8.59023 0.24267 8.3448 0 8.04516 0C7.89237 0 7.75344 0.0627 7.65522 0.16356L4.19913 3.54336H2.0487C1.44639 3.54336 0.958496 4.03128 0.958496 4.63365V7.9044C0.958496 8.50674 1.44642 8.9946 2.0487 8.9946H4.19652ZM11.6566 2.92197C11.3949 3.18084 11.3949 3.60336 11.6566 3.86508C12.3053 4.5165 12.7085 5.41329 12.7085 6.40533C12.7085 7.39764 12.3026 8.29413 11.654 8.9457C11.392 9.20739 11.392 9.62982 11.654 9.88875C11.9127 10.1505 12.3353 10.1505 12.597 9.88875C13.4882 8.99739 14.0415 7.76553 14.0415 6.40536C14.0415 5.04801 13.4937 3.81861 12.6052 2.92746L12.5996 2.922C12.3381 2.66022 11.9183 2.66022 11.6566 2.92197ZM11.0923 8.38134C11.5964 7.87458 11.9073 7.1766 11.9073 6.4053C11.9073 5.63391 11.5964 4.93623 11.0923 4.42917C10.8307 4.16754 10.4082 4.16754 10.1492 4.42917C9.88752 4.68819 9.88752 5.11056 10.1492 5.37228C10.4109 5.63673 10.5743 6.00192 10.5743 6.4053C10.5743 6.80877 10.4109 7.17399 10.1492 7.43835C9.88752 7.70004 9.88752 8.1198 10.1492 8.38137C10.4082 8.64042 10.8307 8.64303 11.0923 8.38134Z"
      fill="currentColor" />
  </symbol>


  <symbol id="pause">
    <path
      d="M1.53081 11.9998H0.469187C0.210063 11.9998 0 11.5367 0 10.9656V1.04373C0 0.472552 0.210063 0.00952148 0.469187 0.00952148H1.53081C1.78994 0.00952148 2 0.472552 2 1.04373V10.9656C2 11.5367 1.78994 11.9998 1.53081 11.9998Z"
      fill="currentColor" />
    <path
      d="M6.53081 11.9902H5.46919C5.21006 11.9902 5 11.5272 5 10.956V1.03421C5 0.463031 5.21006 0 5.46919 0H6.53081C6.78994 0 7 0.463031 7 1.03421V10.956C7 11.5272 6.78994 11.9902 6.53081 11.9902Z"
      fill="currentColor" />
  </symbol>


  <symbol id="stop">
    <rect rx="2" fill="currentColor" />
  </symbol>

  <!-- Add more symbols as needed -->
  <symbol id="user">
    <path
      d="M16.3874 16.1875V14.6458C16.3874 13.8281 16.0625 13.0438 15.4843 12.4656C14.906 11.8874 14.1218 11.5625 13.304 11.5625H7.13736C6.31961 11.5625 5.53536 11.8874 4.95712 12.4656C4.37888 13.0438 4.05403 13.8281 4.05403 14.6458V16.1875"
      stroke="currentColor" stroke-linecap="round" stroke-linejoin="round" />
    <path
      d="M10.2207 8.47917C11.9236 8.47917 13.304 7.09871 13.304 5.39583C13.304 3.69296 11.9236 2.3125 10.2207 2.3125C8.51783 2.3125 7.13737 3.69296 7.13737 5.39583C7.13737 7.09871 8.51783 8.47917 10.2207 8.47917Z"
      stroke="currentColor" stroke-linecap="round" stroke-linejoin="round" />
  </symbol>
  <symbol id="logout">
    <path d="M4.24988 7.5H12.607" stroke="currentColor" stroke-miterlimit="10" stroke-linecap="round"
      stroke-linejoin="round" />
    <path d="M6.74553 1H2.45089C1.63839 1 1 1.63839 1 2.39286V12.5491C1 13.3616 1.63839 14 2.45089 14H6.74553"
      stroke="currentColor" stroke-miterlimit="10" stroke-linecap="round" stroke-linejoin="round" />
    <path d="M10.4021 5.29468L12.6075 7.50003L10.4021 9.70539" stroke="currentColor" stroke-miterlimit="10"
      stroke-linecap="round" stroke-linejoin="round" />
  </symbol>
  <symbol id="arrow-right">
    <path
      d="M0.418713 9.29766C0.335878 9.29764 0.254908 9.27716 0.186044 9.23879C0.117181 9.20043 0.0635161 9.14591 0.0318369 9.08212C0.000157703 9.01834 -0.00811283 8.94817 0.00807135 8.88047C0.0242555 8.81277 0.0641673 8.75059 0.122759 8.70179L4.98896 4.64663L0.122759 0.591457C0.0464711 0.525635 0.00425808 0.437476 0.00521228 0.345969C0.00616649 0.254462 0.0502116 0.166928 0.127861 0.10222C0.20551 0.0375125 0.310551 0.000808365 0.42036 1.31932e-05C0.530168 -0.000781979 0.635959 0.0343954 0.714946 0.0979689L5.87738 4.4C5.95589 4.46544 6 4.5542 6 4.64674C6 4.73928 5.95589 4.82804 5.87738 4.89349L0.714946 9.19551C0.676037 9.22792 0.62985 9.25362 0.579022 9.27114C0.528193 9.28867 0.47372 9.29768 0.418713 9.29766Z"
      fill="currentColor" />
  </symbol>
  <symbol id="arrow-left">
    <path
      d="M5.58129 9.29766C5.66412 9.29764 5.74509 9.27716 5.81396 9.23879C5.88282 9.20043 5.93648 9.14591 5.96816 9.08212C5.99984 9.01834 6.00811 8.94817 5.99193 8.88047C5.97574 8.81277 5.93583 8.75059 5.87724 8.70179L1.01104 4.64663L5.87724 0.591457C5.95353 0.525635 5.99574 0.437476 5.99479 0.345969C5.99383 0.254462 5.94979 0.166928 5.87214 0.10222C5.79449 0.0375125 5.68945 0.000808365 5.57964 1.31932e-05C5.46983 -0.000781979 5.36404 0.0343954 5.28505 0.0979689L0.12262 4.4C0.044107 4.46544 0 4.5542 0 4.64674C0 4.73928 0.044107 4.82804 0.12262 4.89349L5.28505 9.19551C5.32396 9.22792 5.37015 9.25362 5.42098 9.27114C5.47181 9.28867 5.52628 9.29768 5.58129 9.29766Z"
      fill="black" />
  </symbol>
  <symbol id="refresh">
    <g clip-path="url(#clip0_1_1423)">
      <path fill-rule="evenodd" clip-rule="evenodd"
        d="M0.53341 7.04167C0.817633 7.04167 1.04348 6.7951 1.04348 6.5C1.04348 4.48907 1.50822 3.18182 2.25338 2.37456C2.99059 1.57591 4.17242 1.08333 6 1.08333C7.8276 1.08333 9.00939 1.57591 9.74661 2.37456C10.1073 2.76531 10.4023 3.27321 10.6107 3.92135C10.6877 4.16079 10.8969 4.33333 11.1401 4.33333C11.4785 4.33333 11.7321 4.00745 11.63 3.67245C10.8833 1.22415 9.00663 0 6 0C2 0 0 2.16667 0 6.5C0 6.50796 6.73763e-06 6.51592 2.0213e-05 6.52383C0.000511731 6.81341 0.230884 7.04167 0.509807 7.04167H0.53341ZM1.38932 9.07866C1.31234 8.83919 1.10309 8.66667 0.859946 8.66667C0.521474 8.66667 0.26787 8.99253 0.370039 9.32755C1.11671 11.7758 2.99336 13 6 13C10 13 12 10.8333 12 6.5C12 6.49204 12 6.48408 12 6.47617C11.9995 6.18659 11.7691 5.95833 11.4902 5.95833H11.4666C11.1824 5.95833 10.9565 6.2049 10.9565 6.5C10.9565 8.51094 10.4918 9.8182 9.74661 10.6254C9.00939 11.4241 7.8276 11.9167 6 11.9167C4.17242 11.9167 2.99059 11.4241 2.25338 10.6254C1.89269 10.2347 1.5977 9.72682 1.38932 9.07866Z"
        fill="currentColor" />
      <path d="M11.4782 0.541656V3.79166H8.34778" stroke="currentColor" stroke-linecap="round"
        stroke-linejoin="round" />
      <path d="M0.521729 12.4583L0.521729 9.20834H3.65216" stroke="currentColor" stroke-linecap="round"
        stroke-linejoin="round" />
    </g>
    <defs>
      <clipPath id="clip0_1_1423">
        <rect width="12" height="13" fill="white" />
      </clipPath>
    </defs>
  </symbol>

</svg>